M48
; DRILL file {KiCad 5.1.8-5.1.8} date Tue Aug 17 15:28:27 2021
; FORMAT={-:-/ absolute / inch / decimal}
; #@! TF.CreationDate,2021-08-17T15:28:27-07:00
; #@! TF.GenerationSoftware,Kicad,Pcbnew,5.1.8-5.1.8
; #@! TF.FileFunction,Plated,1,2,PTH
FMAT,2
INCH
T1C0.0157
T2C0.0315
T3C0.0354
T4C0.0394
T5C0.0400
T6C0.0433
T7C0.0472
T8C0.0551
T9C0.0787
T10C0.0940
T11C0.1500
%
G90
G05
T1
X12.1699Y-9.8531
X12.2953Y-7.5043
X12.2969Y-11.1921
X12.2973Y-11.1077
X12.2997Y-10.9039
X12.3008Y-10.6059
X12.302Y-10.7047
X12.3023Y-11.0043
X12.3063Y-10.2016
X12.3075Y-10.0051
X12.3075Y-10.1016
X12.3083Y-9.0524
X12.3083Y-9.3047
X12.3083Y-9.4035
X12.3083Y-9.5035
X12.3083Y-9.6016
X12.3083Y-10.3047
X12.3083Y-10.4031
X12.3083Y-10.5016
X12.3098Y-9.7051
X12.3098Y-9.7933
X12.3102Y-9.9055
X12.3823Y-10.3528
X12.4183Y-11.0512
X12.4293Y-8.9654
X12.6406Y-8.9024
X12.7476Y-7.4657
X12.7965Y-8.8354
X12.8732Y-8.9319
X12.886Y-8.9993
X13.1075Y-8.865
X13.1075Y-8.9319
X13.1075Y-8.9909
X13.1075Y-9.1091
X13.3634Y-8.7075
X13.3634Y-8.7892
X13.3676Y-10.8735
X13.4177Y-11.4543
X13.4205Y-10.4524
X13.4598Y-8.2094
X13.4598Y-8.7075
X13.4677Y-11.415
X13.4707Y-10.4126
X13.5107Y-8.803
X13.5602Y-8.2094
X13.6197Y-11.5024
X13.6201Y-10.4984
X13.6409Y-8.1976
X13.6681Y-11.4622
X13.6803Y-10.4697
X13.8134Y-11.5199
X13.8217Y-10.4821
X13.8555Y-9.0008
X13.8669Y-11.4827
X13.8717Y-10.4821
X13.9776Y-10.4821
X13.9862Y-11.4844
X14.0406Y-8.9732
X14.0673Y-11.4844
X14.0709Y-10.4821
X14.1114Y-8.9663
X14.2118Y-8.4791
X15.0051Y-7.8413
X15.0051Y-7.9201
X15.0583Y-8.6898
X15.0898Y-8.113
X15.1567Y-8.2252
X15.1567Y-8.7016
X15.1602Y-11.561
X15.1724Y-10.5685
X15.2433Y-8.7331
X15.2571Y-11.5358
X15.2591Y-8.1602
X15.2591Y-8.2252
X15.2693Y-10.5433
X15.3161Y-9.1327
X15.3567Y-11.5134
X15.3575Y-8.9693
X15.3689Y-10.5209
X15.4579Y-8.9319
X15.4642Y-11.485
X15.4657Y-9.1445
X15.4764Y-10.4925
X15.5571Y-11.4606
X15.5583Y-8.9142
X15.5583Y-8.3846
X15.5693Y-10.4681
X15.6579Y-11.4327
X15.6701Y-10.4402
X15.7571Y-11.4059
X15.7591Y-8.4732
X15.7693Y-10.4134
X15.8573Y-11.3883
X15.8575Y-8.802
X15.8695Y-10.3958
X16.9205Y-9.1461
X16.9213Y-8.5689
X16.9213Y-10.5669
X16.9213Y-11.1043
X17.095Y-8.45
X17.095Y-9.4481
X17.095Y-10.4489
X17.095Y-11.45
X17.3701Y-11.3445
X17.4696Y-11.3252
X17.572Y-11.3083
X17.6696Y-11.285
X17.7707Y-11.2571
X17.8711Y-11.237
X17.9693Y-11.211
X18.0791Y-11.1878
X18.1709Y-10.311
X18.2697Y-10.3067
X18.3705Y-10.2906
X18.4713Y-10.2626
X18.5705Y-10.2406
X18.6197Y-7.9106
X18.6701Y-10.2193
X18.7196Y-7.9803
X18.7701Y-10.1965
X18.8177Y-8.0146
X18.8705Y-10.1654
X18.9705Y-8.2484
X19.0196Y-9.8858
X19.0757Y-8.1026
X19.1197Y-8.1469
X19.1528Y-5.8394
X19.2169Y-8.8803
X19.2748Y-8.835
X19.3189Y-8.7921
X19.3697Y-8.211
X19.4697Y-7.3323
X19.4709Y-8.1819
X19.7909Y-8.2628
X19.7909Y-8.3238
X19.7945Y-7.1646
X19.7945Y-7.2268
X19.8679Y-9.5325
X19.8679Y-9.5935
X19.8691Y-8.5394
X19.8691Y-8.6004
X19.8693Y-10.5193
X19.8693Y-10.5803
X19.8693Y-11.5329
X19.8693Y-11.5939
X19.8697Y-7.3925
X19.9316Y-6.5279
T2
X14.5681Y-9.2075
X14.5681Y-9.6996
X14.4373Y-9.2092
X14.4373Y-9.7013
X15.9723Y-7.0638
X16.4644Y-7.0638
X13.3142Y-7.7961
X13.8063Y-7.7961
X20.18Y-5.012
X20.6722Y-5.012
X13.6573Y-9.2092
X13.6573Y-9.7013
X13.2676Y-11.0013
X13.2676Y-11.3013
X13.3676Y-11.0013
X13.3676Y-11.3013
X13.4676Y-11.0013
X13.4676Y-11.3013
X13.5676Y-11.0013
X13.5676Y-11.3013
X13.6676Y-11.0013
X13.6676Y-11.3013
X13.7676Y-11.0013
X13.7676Y-11.3013
X13.8676Y-11.0013
X13.8676Y-11.3013
X13.9676Y-11.0013
X13.9676Y-11.3013
X14.0676Y-11.0013
X14.0676Y-11.3013
X14.1676Y-11.0013
X14.1676Y-11.3013
X13.7866Y-9.2094
X13.7866Y-9.7016
X14.6953Y-6.5614
X14.6953Y-6.6598
X19.9766Y-7.1602
X19.9766Y-7.6524
X17.3161Y-6.3049
X17.3161Y-6.797
X15.6213Y-9.6659
X16.1134Y-9.6659
X14.1773Y-9.2092
X14.1773Y-9.7013
X13.2673Y-10.7913
X13.7594Y-10.7913
X20.3652Y-6.1074
X20.8573Y-6.1074
X14.0473Y-9.2094
X14.0473Y-9.7016
X14.6598Y-6.0402
X15.1519Y-6.0402
X14.6073Y-8.9188
X15.0994Y-8.9188
X13.2669Y-9.2094
X13.2669Y-9.7016
X15.0123Y-9.8519
X15.5044Y-9.8519
X12.9948Y-5.9652
X13.5853Y-5.9652
X17.4904Y-6.4575
X17.4904Y-6.9496
X14.3713Y-8.6268
X14.8634Y-8.6268
X16.2839Y-9.6626
X16.776Y-9.6626
X14.3083Y-9.2094
X14.3083Y-9.7016
X12.6673Y-7.0279
X12.6673Y-7.1263
X13.1373Y-9.2092
X13.1373Y-9.7013
X20.3652Y-6.5574
X20.8573Y-6.5574
X20.183Y-5.3866
X20.6751Y-5.3866
X15.9723Y-7.2763
X16.4644Y-7.2763
X15.0073Y-10.8513
X15.4994Y-10.8513
X15.9723Y-6.4263
X16.4644Y-6.4263
X13.2707Y-10.0032
X13.2707Y-10.3032
X13.3707Y-10.0032
X13.3707Y-10.3032
X13.4707Y-10.0032
X13.4707Y-10.3032
X13.5707Y-10.0032
X13.5707Y-10.3032
X13.6707Y-10.0032
X13.6707Y-10.3032
X13.7707Y-10.0032
X13.7707Y-10.3032
X13.8707Y-10.0032
X13.8707Y-10.3032
X13.9707Y-10.0032
X13.9707Y-10.3032
X14.0707Y-10.0032
X14.0707Y-10.3032
X14.1707Y-10.0032
X14.1707Y-10.3032
X14.8273Y-9.2094
X14.8273Y-9.7016
X15.6073Y-8.0963
X16.0994Y-8.0963
X18.9569Y-6.4191
X18.9569Y-6.5175
X14.6973Y-9.2092
X14.6973Y-9.7013
X15.0173Y-10.0039
X15.0173Y-10.3039
X15.1173Y-10.0039
X15.1173Y-10.3039
X15.2173Y-10.0039
X15.2173Y-10.3039
X15.3173Y-10.0039
X15.3173Y-10.3039
X15.4173Y-10.0039
X15.4173Y-10.3039
X15.5173Y-10.0039
X15.5173Y-10.3039
X15.6173Y-10.0039
X15.6173Y-10.3039
X15.7173Y-10.0039
X15.7173Y-10.3039
X15.8173Y-10.0039
X15.8173Y-10.3039
X15.9173Y-10.0039
X15.9173Y-10.3039
X20.3652Y-6.2574
X20.8573Y-6.2574
X12.9998Y-5.3452
X13.4919Y-5.3452
X15.0173Y-9.2113
X15.0173Y-9.5113
X15.1173Y-9.2113
X15.1173Y-9.5113
X15.2173Y-9.2113
X15.2173Y-9.5113
X15.3173Y-9.2113
X15.3173Y-9.5113
X15.4173Y-9.2113
X15.4173Y-9.5113
X15.5173Y-9.2113
X15.5173Y-9.5113
X15.6173Y-9.2113
X15.6173Y-9.5113
X15.7173Y-9.2113
X15.7173Y-9.5113
X15.8173Y-9.2113
X15.8173Y-9.5113
X15.9173Y-9.2113
X15.9173Y-9.5113
X13.699Y-5.9644
X14.2896Y-5.9644
X13.5268Y-9.2094
X13.5268Y-9.7016
X15.9723Y-6.2138
X16.4644Y-6.2138
X20.183Y-5.2624
X20.6751Y-5.2624
X13.9173Y-9.2092
X13.9173Y-9.7013
X20.3652Y-6.7074
X20.8573Y-6.7074
X19.9746Y-7.9014
X19.9746Y-8.3935
X15.9723Y-6.6388
X16.4644Y-6.6388
X15.9723Y-6.8513
X16.4644Y-6.8513
X13.3973Y-9.2092
X13.3973Y-9.7013
X15.0073Y-10.9997
X15.0073Y-11.2997
X15.1073Y-10.9997
X15.1073Y-11.2997
X15.2073Y-10.9997
X15.2073Y-11.2997
X15.3073Y-10.9997
X15.3073Y-11.2997
X15.4073Y-10.9997
X15.4073Y-11.2997
X15.5073Y-10.9997
X15.5073Y-11.2997
X15.6073Y-10.9997
X15.6073Y-11.2997
X15.7073Y-10.9997
X15.7073Y-11.2997
X15.8073Y-10.9997
X15.8073Y-11.2997
X15.9073Y-10.9997
X15.9073Y-11.2997
X14.1598Y-5.3281
X14.1598Y-5.8202
X15.0073Y-8.3263
X15.0073Y-8.6263
X15.1073Y-8.3263
X15.1073Y-8.6263
X15.2073Y-8.3263
X15.2073Y-8.6263
X15.3073Y-8.3263
X15.3073Y-8.6263
X15.4073Y-8.3263
X15.4073Y-8.6263
X15.5073Y-8.3263
X15.5073Y-8.6263
X15.6073Y-8.3263
X15.6073Y-8.6263
X15.7073Y-8.3263
X15.7073Y-8.6263
X15.8073Y-8.3263
X15.8073Y-8.6263
X15.9073Y-8.3263
X15.9073Y-8.6263
X15.011Y-9.6642
X15.5031Y-9.6642
X13.076Y-9.8563
X13.5681Y-9.8563
X15.9723Y-6.0013
X16.4644Y-6.0013
X14.8073Y-8.0013
X15.2994Y-8.0013
X13.3107Y-8.3263
X13.3107Y-8.6263
X13.4107Y-8.3263
X13.4107Y-8.6263
X13.5107Y-8.3263
X13.5107Y-8.6263
X13.6107Y-8.3263
X13.6107Y-8.6263
X13.7107Y-8.3263
X13.7107Y-8.6263
X13.8107Y-8.3263
X13.8107Y-8.6263
X13.9107Y-8.3263
X13.9107Y-8.6263
X14.0107Y-8.3263
X14.0107Y-8.6263
X14.1107Y-8.3263
X14.1107Y-8.6263
X14.2107Y-8.3263
X14.2107Y-8.6263
X20.3652Y-6.4074
X20.8573Y-6.4074
X20.18Y-5.1362
X20.6722Y-5.1362
T3
X20.4127Y-7.7333
X20.4127Y-7.8333
X12.6423Y-5.4213
X12.6423Y-5.5213
T4
X19.515Y-7.0051
X17.2693Y-10.4492
X17.2693Y-10.6492
X17.3693Y-10.4492
X17.3693Y-10.6492
X17.4693Y-10.4492
X17.4693Y-10.6492
X17.5693Y-10.4492
X17.5693Y-10.6492
X17.6693Y-10.4492
X17.6693Y-10.6492
X17.7693Y-10.4492
X17.7693Y-10.6492
X17.8693Y-10.4492
X17.8693Y-10.6492
X17.9693Y-10.4492
X17.9693Y-10.6492
X18.0693Y-10.4492
X18.0693Y-10.6492
X18.1693Y-10.4492
X18.1693Y-10.6492
X18.2693Y-10.4492
X18.2693Y-10.6492
X18.3693Y-10.4492
X18.3693Y-10.6492
X18.4693Y-10.4492
X18.4693Y-10.6492
X18.5693Y-10.4492
X18.5693Y-10.6492
X18.6693Y-10.4492
X18.6693Y-10.6492
X18.7693Y-10.4492
X18.7693Y-10.6492
X18.8693Y-10.4492
X18.8693Y-10.6492
X18.9693Y-10.4492
X18.9693Y-10.6492
X19.0693Y-10.4492
X19.0693Y-10.6492
X19.1693Y-10.4492
X19.1693Y-10.6492
X19.2693Y-10.4492
X19.2693Y-10.6492
X19.3693Y-10.4492
X19.3693Y-10.6492
X19.4693Y-10.4492
X19.4693Y-10.6492
X19.5693Y-10.4492
X19.5693Y-10.6492
X19.6693Y-10.4492
X19.6693Y-10.6492
X17.2701Y-8.4492
X17.2701Y-8.6492
X17.3701Y-8.4492
X17.3701Y-8.6492
X17.4701Y-8.4492
X17.4701Y-8.6492
X17.5701Y-8.4492
X17.5701Y-8.6492
X17.6701Y-8.4492
X17.6701Y-8.6492
X17.7701Y-8.4492
X17.7701Y-8.6492
X17.8701Y-8.4492
X17.8701Y-8.6492
X17.9701Y-8.4492
X17.9701Y-8.6492
X18.0701Y-8.4492
X18.0701Y-8.6492
X18.1701Y-8.4492
X18.1701Y-8.6492
X18.2701Y-8.4492
X18.2701Y-8.6492
X18.3701Y-8.4492
X18.3701Y-8.6492
X18.4701Y-8.4492
X18.4701Y-8.6492
X18.5701Y-8.4492
X18.5701Y-8.6492
X18.6701Y-8.4492
X18.6701Y-8.6492
X18.7701Y-8.4492
X18.7701Y-8.6492
X18.8701Y-8.4492
X18.8701Y-8.6492
X18.9701Y-8.4492
X18.9701Y-8.6492
X19.0701Y-8.4492
X19.0701Y-8.6492
X19.1701Y-8.4492
X19.1701Y-8.6492
X19.2701Y-8.4492
X19.2701Y-8.6492
X19.3701Y-8.4492
X19.3701Y-8.6492
X19.4701Y-8.4492
X19.4701Y-8.6492
X19.5701Y-8.4492
X19.5701Y-8.6492
X19.6701Y-8.4492
X19.6701Y-8.6492
X17.2697Y-11.4492
X17.2697Y-11.6492
X17.3697Y-11.4492
X17.3697Y-11.6492
X17.4697Y-11.4492
X17.4697Y-11.6492
X17.5697Y-11.4492
X17.5697Y-11.6492
X17.6697Y-11.4492
X17.6697Y-11.6492
X17.7697Y-11.4492
X17.7697Y-11.6492
X17.8697Y-11.4492
X17.8697Y-11.6492
X17.9697Y-11.4492
X17.9697Y-11.6492
X18.0697Y-11.4492
X18.0697Y-11.6492
X18.1697Y-11.4492
X18.1697Y-11.6492
X18.2697Y-11.4492
X18.2697Y-11.6492
X18.3697Y-11.4492
X18.3697Y-11.6492
X18.4697Y-11.4492
X18.4697Y-11.6492
X18.5697Y-11.4492
X18.5697Y-11.6492
X18.6697Y-11.4492
X18.6697Y-11.6492
X18.7697Y-11.4492
X18.7697Y-11.6492
X18.8697Y-11.4492
X18.8697Y-11.6492
X18.9697Y-11.4492
X18.9697Y-11.6492
X19.0697Y-11.4492
X19.0697Y-11.6492
X19.1697Y-11.4492
X19.1697Y-11.6492
X19.2697Y-11.4492
X19.2697Y-11.6492
X19.3697Y-11.4492
X19.3697Y-11.6492
X19.4697Y-11.4492
X19.4697Y-11.6492
X19.5697Y-11.4492
X19.5697Y-11.6492
X19.6697Y-11.4492
X19.6697Y-11.6492
X18.9705Y-7.0047
X19.8697Y-7.0106
X13.4098Y-5.1952
X13.0423Y-7.1898
X17.2697Y-7.4488
X17.2697Y-7.6488
X17.3697Y-7.4488
X17.3697Y-7.6488
X17.4697Y-7.4488
X17.4697Y-7.6488
X17.5697Y-7.4488
X17.5697Y-7.6488
X17.6697Y-7.4488
X17.6697Y-7.6488
X17.7697Y-7.4488
X17.7697Y-7.6488
X17.8697Y-7.4488
X17.8697Y-7.6488
X17.9697Y-7.4488
X17.9697Y-7.6488
X18.0697Y-7.4488
X18.0697Y-7.6488
X18.1697Y-7.4488
X18.1697Y-7.6488
X18.2697Y-7.4488
X18.2697Y-7.6488
X18.3697Y-7.4488
X18.3697Y-7.6488
X18.4697Y-7.4488
X18.4697Y-7.6488
X18.5697Y-7.4488
X18.5697Y-7.6488
X18.6697Y-7.4488
X18.6697Y-7.6488
X18.7697Y-7.4488
X18.7697Y-7.6488
X18.8697Y-7.4488
X18.8697Y-7.6488
X18.9697Y-7.4488
X18.9697Y-7.6488
X19.0697Y-7.4488
X19.0697Y-7.6488
X19.1697Y-7.4488
X19.1697Y-7.6488
X19.2697Y-7.4488
X19.2697Y-7.6488
X19.3697Y-7.4488
X19.3697Y-7.6488
X19.4697Y-7.4488
X19.4697Y-7.6488
X19.5697Y-7.4488
X19.5697Y-7.6488
X19.6697Y-7.4488
X19.6697Y-7.6488
X17.2701Y-9.4488
X17.2701Y-9.6488
X17.3701Y-9.4488
X17.3701Y-9.6488
X17.4701Y-9.4488
X17.4701Y-9.6488
X17.5701Y-9.4488
X17.5701Y-9.6488
X17.6701Y-9.4488
X17.6701Y-9.6488
X17.7701Y-9.4488
X17.7701Y-9.6488
X17.8701Y-9.4488
X17.8701Y-9.6488
X17.9701Y-9.4488
X17.9701Y-9.6488
X18.0701Y-9.4488
X18.0701Y-9.6488
X18.1701Y-9.4488
X18.1701Y-9.6488
X18.2701Y-9.4488
X18.2701Y-9.6488
X18.3701Y-9.4488
X18.3701Y-9.6488
X18.4701Y-9.4488
X18.4701Y-9.6488
X18.5701Y-9.4488
X18.5701Y-9.6488
X18.6701Y-9.4488
X18.6701Y-9.6488
X18.7701Y-9.4488
X18.7701Y-9.6488
X18.8701Y-9.4488
X18.8701Y-9.6488
X18.9701Y-9.4488
X18.9701Y-9.6488
X19.0701Y-9.4488
X19.0701Y-9.6488
X19.1701Y-9.4488
X19.1701Y-9.6488
X19.2701Y-9.4488
X19.2701Y-9.6488
X19.3701Y-9.4488
X19.3701Y-9.6488
X19.4701Y-9.4488
X19.4701Y-9.6488
X19.5701Y-9.4488
X19.5701Y-9.6488
X19.6701Y-9.4488
X19.6701Y-9.6488
X15.4898Y-6.7752
T5
X20.465Y-6.9
X20.465Y-7.085
X20.465Y-7.2701
T6
X18.1083Y-6.552
X18.2083Y-6.552
X18.3083Y-6.552
X13.8654Y-6.5551
X13.9654Y-6.5551
X14.0654Y-6.5551
X12.7173Y-6.5563
X12.8173Y-6.5563
X12.9173Y-6.5563
T7
X19.9316Y-6.2326
X19.9316Y-6.5279
X15.5148Y-5.6634
X15.5148Y-5.8602
X19.3909Y-6.1278
X19.3909Y-6.423
X16.7823Y-5.8194
X16.7823Y-6.0163
X13.8112Y-5.4545
X13.8112Y-5.6514
X15.4998Y-6.195
X15.4998Y-6.4902
X16.8473Y-6.4294
X16.8473Y-6.6263
T8
X18.5606Y-5.697
X19.1512Y-5.6974
X19.4238Y-5.697
X20.0143Y-5.6974
X19.4238Y-5.227
X20.0143Y-5.2274
X18.5606Y-5.227
X19.1512Y-5.2274
T9
X14.6898Y-5.2515
X14.6898Y-5.6452
X17.3573Y-5.2513
X17.3573Y-5.645
X16.2223Y-5.2526
X16.2223Y-5.6463
T10
X20.965Y-6.8
X20.965Y-7.0
X20.965Y-7.2
X20.965Y-7.4
T11
X12.3673Y-11.6913
X12.3677Y-8.3075
T2
G00X20.5259Y-5.8885
M15
G01X20.5259Y-5.7862
M16
G05
G00X20.6873Y-5.6484
M15
G01X20.6007Y-5.6484
M16
G05
G00X20.7542Y-5.8807
M15
G01X20.7542Y-5.7941
M16
G05
T0
M30
