G04 #@! TF.GenerationSoftware,KiCad,Pcbnew,5.1.8-5.1.8*
G04 #@! TF.CreationDate,2021-12-29T14:09:20-07:00*
G04 #@! TF.ProjectId,1090,31303930-2e6b-4696-9361-645f70636258,rev?*
G04 #@! TF.SameCoordinates,Original*
G04 #@! TF.FileFunction,Soldermask,Bot*
G04 #@! TF.FilePolarity,Negative*
%FSLAX46Y46*%
G04 Gerber Fmt 4.6, Leading zero omitted, Abs format (unit mm)*
G04 Created by KiCad (PCBNEW 5.1.8-5.1.8) date 2021-12-29 14:09:20*
%MOMM*%
%LPD*%
G01*
G04 APERTURE LIST*
%ADD10C,3.200000*%
%ADD11C,2.524000*%
%ADD12O,1.700000X1.700000*%
%ADD13R,1.700000X1.700000*%
%ADD14R,7.620000X1.524000*%
%ADD15O,4.000000X1.800000*%
%ADD16O,1.800000X4.000000*%
%ADD17R,1.800000X4.400000*%
%ADD18C,1.600000*%
%ADD19O,1.600000X1.600000*%
%ADD20C,1.800000*%
%ADD21R,1.800000X1.800000*%
%ADD22O,2.800000X2.800000*%
%ADD23R,2.800000X2.800000*%
%ADD24R,1.600000X1.600000*%
%ADD25R,2.400000X2.400000*%
%ADD26C,2.400000*%
%ADD27R,1.905000X2.000000*%
%ADD28O,1.905000X2.000000*%
%ADD29C,2.000000*%
%ADD30R,4.000000X4.000000*%
%ADD31C,4.000000*%
G04 APERTURE END LIST*
D10*
X532384000Y-183794400D03*
X532384000Y-178714400D03*
D11*
X519684000Y-185574401D03*
X519684000Y-180874401D03*
X519684000Y-176174400D03*
D12*
X438650000Y-290810000D03*
X438650000Y-295890000D03*
X441190000Y-290810000D03*
X441190000Y-295890000D03*
X443730000Y-290810000D03*
X443730000Y-295890000D03*
X446270000Y-290810000D03*
X446270000Y-295890000D03*
X448810000Y-290810000D03*
X448810000Y-295890000D03*
X451350000Y-290810000D03*
X451350000Y-295890000D03*
X453890000Y-290810000D03*
X453890000Y-295890000D03*
X456430000Y-290810000D03*
X456430000Y-295890000D03*
X458970000Y-290810000D03*
X458970000Y-295890000D03*
X461510000Y-290810000D03*
X461510000Y-295890000D03*
X464050000Y-290810000D03*
X464050000Y-295890000D03*
X466590000Y-290810000D03*
X466590000Y-295890000D03*
X469130000Y-290810000D03*
X469130000Y-295890000D03*
X471670000Y-290810000D03*
X471670000Y-295890000D03*
X474210000Y-290810000D03*
X474210000Y-295890000D03*
X476750000Y-290810000D03*
X476750000Y-295890000D03*
X479290000Y-290810000D03*
X479290000Y-295890000D03*
X481830000Y-290810000D03*
X481830000Y-295890000D03*
X484370000Y-290810000D03*
X484370000Y-295890000D03*
X486910000Y-290810000D03*
X486910000Y-295890000D03*
X489450000Y-290810000D03*
X489450000Y-295890000D03*
X491990000Y-290810000D03*
X491990000Y-295890000D03*
X494530000Y-290810000D03*
X494530000Y-295890000D03*
X497070000Y-290810000D03*
X497070000Y-295890000D03*
X499610000Y-290810000D03*
D13*
X499610000Y-295890000D03*
D12*
X438650000Y-189200000D03*
X438650000Y-194280000D03*
X441190000Y-189200000D03*
X441190000Y-194280000D03*
X443730000Y-189200000D03*
X443730000Y-194280000D03*
X446270000Y-189200000D03*
X446270000Y-194280000D03*
X448810000Y-189200000D03*
X448810000Y-194280000D03*
X451350000Y-189200000D03*
X451350000Y-194280000D03*
X453890000Y-189200000D03*
X453890000Y-194280000D03*
X456430000Y-189200000D03*
X456430000Y-194280000D03*
X458970000Y-189200000D03*
X458970000Y-194280000D03*
X461510000Y-189200000D03*
X461510000Y-194280000D03*
X464050000Y-189200000D03*
X464050000Y-194280000D03*
X466590000Y-189200000D03*
X466590000Y-194280000D03*
X469130000Y-189200000D03*
X469130000Y-194280000D03*
X471670000Y-189200000D03*
X471670000Y-194280000D03*
X474210000Y-189200000D03*
X474210000Y-194280000D03*
X476750000Y-189200000D03*
X476750000Y-194280000D03*
X479290000Y-189200000D03*
X479290000Y-194280000D03*
X481830000Y-189200000D03*
X481830000Y-194280000D03*
X484370000Y-189200000D03*
X484370000Y-194280000D03*
X486910000Y-189200000D03*
X486910000Y-194280000D03*
X489450000Y-189200000D03*
X489450000Y-194280000D03*
X491990000Y-189200000D03*
X491990000Y-194280000D03*
X494530000Y-189200000D03*
X494530000Y-194280000D03*
X497070000Y-189200000D03*
X497070000Y-194280000D03*
X499610000Y-189200000D03*
D13*
X499610000Y-194280000D03*
D12*
X438660000Y-214610000D03*
X438660000Y-219690000D03*
X441200000Y-214610000D03*
X441200000Y-219690000D03*
X443740000Y-214610000D03*
X443740000Y-219690000D03*
X446280000Y-214610000D03*
X446280000Y-219690000D03*
X448820000Y-214610000D03*
X448820000Y-219690000D03*
X451360000Y-214610000D03*
X451360000Y-219690000D03*
X453900000Y-214610000D03*
X453900000Y-219690000D03*
X456440000Y-214610000D03*
X456440000Y-219690000D03*
X458980000Y-214610000D03*
X458980000Y-219690000D03*
X461520000Y-214610000D03*
X461520000Y-219690000D03*
X464060000Y-214610000D03*
X464060000Y-219690000D03*
X466600000Y-214610000D03*
X466600000Y-219690000D03*
X469140000Y-214610000D03*
X469140000Y-219690000D03*
X471680000Y-214610000D03*
X471680000Y-219690000D03*
X474220000Y-214610000D03*
X474220000Y-219690000D03*
X476760000Y-214610000D03*
X476760000Y-219690000D03*
X479300000Y-214610000D03*
X479300000Y-219690000D03*
X481840000Y-214610000D03*
X481840000Y-219690000D03*
X484380000Y-214610000D03*
X484380000Y-219690000D03*
X486920000Y-214610000D03*
X486920000Y-219690000D03*
X489460000Y-214610000D03*
X489460000Y-219690000D03*
X492000000Y-214610000D03*
X492000000Y-219690000D03*
X494540000Y-214610000D03*
X494540000Y-219690000D03*
X497080000Y-214610000D03*
X497080000Y-219690000D03*
X499620000Y-214610000D03*
D13*
X499620000Y-219690000D03*
D12*
X438660000Y-240000000D03*
X438660000Y-245080000D03*
X441200000Y-240000000D03*
X441200000Y-245080000D03*
X443740000Y-240000000D03*
X443740000Y-245080000D03*
X446280000Y-240000000D03*
X446280000Y-245080000D03*
X448820000Y-240000000D03*
X448820000Y-245080000D03*
X451360000Y-240000000D03*
X451360000Y-245080000D03*
X453900000Y-240000000D03*
X453900000Y-245080000D03*
X456440000Y-240000000D03*
X456440000Y-245080000D03*
X458980000Y-240000000D03*
X458980000Y-245080000D03*
X461520000Y-240000000D03*
X461520000Y-245080000D03*
X464060000Y-240000000D03*
X464060000Y-245080000D03*
X466600000Y-240000000D03*
X466600000Y-245080000D03*
X469140000Y-240000000D03*
X469140000Y-245080000D03*
X471680000Y-240000000D03*
X471680000Y-245080000D03*
X474220000Y-240000000D03*
X474220000Y-245080000D03*
X476760000Y-240000000D03*
X476760000Y-245080000D03*
X479300000Y-240000000D03*
X479300000Y-245080000D03*
X481840000Y-240000000D03*
X481840000Y-245080000D03*
X484380000Y-240000000D03*
X484380000Y-245080000D03*
X486920000Y-240000000D03*
X486920000Y-245080000D03*
X489460000Y-240000000D03*
X489460000Y-245080000D03*
X492000000Y-240000000D03*
X492000000Y-245080000D03*
X494540000Y-240000000D03*
X494540000Y-245080000D03*
X497080000Y-240000000D03*
X497080000Y-245080000D03*
X499620000Y-240000000D03*
D13*
X499620000Y-245080000D03*
D12*
X438640000Y-265410000D03*
X438640000Y-270490000D03*
X441180000Y-265410000D03*
X441180000Y-270490000D03*
X443720000Y-265410000D03*
X443720000Y-270490000D03*
X446260000Y-265410000D03*
X446260000Y-270490000D03*
X448800000Y-265410000D03*
X448800000Y-270490000D03*
X451340000Y-265410000D03*
X451340000Y-270490000D03*
X453880000Y-265410000D03*
X453880000Y-270490000D03*
X456420000Y-265410000D03*
X456420000Y-270490000D03*
X458960000Y-265410000D03*
X458960000Y-270490000D03*
X461500000Y-265410000D03*
X461500000Y-270490000D03*
X464040000Y-265410000D03*
X464040000Y-270490000D03*
X466580000Y-265410000D03*
X466580000Y-270490000D03*
X469120000Y-265410000D03*
X469120000Y-270490000D03*
X471660000Y-265410000D03*
X471660000Y-270490000D03*
X474200000Y-265410000D03*
X474200000Y-270490000D03*
X476740000Y-265410000D03*
X476740000Y-270490000D03*
X479280000Y-265410000D03*
X479280000Y-270490000D03*
X481820000Y-265410000D03*
X481820000Y-270490000D03*
X484360000Y-265410000D03*
X484360000Y-270490000D03*
X486900000Y-265410000D03*
X486900000Y-270490000D03*
X489440000Y-265410000D03*
X489440000Y-270490000D03*
X491980000Y-265410000D03*
X491980000Y-270490000D03*
X494520000Y-265410000D03*
X494520000Y-270490000D03*
X497060000Y-265410000D03*
X497060000Y-270490000D03*
X499600000Y-265410000D03*
D13*
X499600000Y-270490000D03*
D14*
X304290000Y-239162900D03*
X304290000Y-246782900D03*
X304290000Y-236622900D03*
X304290000Y-241702900D03*
X304290000Y-244242900D03*
X304290000Y-231542900D03*
X304290000Y-229002900D03*
X304290000Y-223922900D03*
X304290000Y-234082900D03*
X304290000Y-226462900D03*
X304290000Y-284882900D03*
X304290000Y-282342900D03*
X304290000Y-279802900D03*
X304290000Y-277262900D03*
X304290000Y-274722900D03*
X304290000Y-272182900D03*
X304290000Y-269642900D03*
X304290000Y-267102900D03*
X304290000Y-264562900D03*
X304290000Y-262022900D03*
X304290000Y-259482900D03*
X304290000Y-256942900D03*
X304290000Y-254402900D03*
X304290000Y-251862900D03*
X304290000Y-249322900D03*
D15*
X524357000Y-143469000D03*
D16*
X527157000Y-148269000D03*
D17*
X521357000Y-148269000D03*
D18*
X393780000Y-245470000D03*
D19*
X381280000Y-245470000D03*
D20*
X321115000Y-140241000D03*
D21*
X321115000Y-137701000D03*
D20*
X518483000Y-196425000D03*
D21*
X518483000Y-198965000D03*
D22*
X508364000Y-132777000D03*
D23*
X493364000Y-132767000D03*
D22*
X486440000Y-132777000D03*
D23*
X471440000Y-132767000D03*
D22*
X508364000Y-144715000D03*
D23*
X493364000Y-144705000D03*
D18*
X439830000Y-160145000D03*
D19*
X439830000Y-172645000D03*
D18*
X512648000Y-133664000D03*
D19*
X525148000Y-133664000D03*
D18*
X517275000Y-162747000D03*
D19*
X529775000Y-162747000D03*
D18*
X512573000Y-127304000D03*
D19*
X525073000Y-127304000D03*
D18*
X336990000Y-274099000D03*
D19*
X349490000Y-274099000D03*
D18*
X344630000Y-250350000D03*
D19*
X332130000Y-250350000D03*
D18*
X338180000Y-198020000D03*
D19*
X350680000Y-198020000D03*
D18*
X381313000Y-250238999D03*
D19*
X393813000Y-250238999D03*
D18*
X377530000Y-219120000D03*
D19*
X365030000Y-219120000D03*
D18*
X517275000Y-170367000D03*
D19*
X529775000Y-170367000D03*
D18*
X517275000Y-155127000D03*
D19*
X529775000Y-155127000D03*
D18*
X376106000Y-203233000D03*
D19*
X388606000Y-203233000D03*
D18*
X381186000Y-275623000D03*
D19*
X393686000Y-275623000D03*
D24*
X381440000Y-261720000D03*
D19*
X404300000Y-254100000D03*
X383980000Y-261720000D03*
X401760000Y-254100000D03*
X386520000Y-261720000D03*
X399220000Y-254100000D03*
X389060000Y-261720000D03*
X396680000Y-254100000D03*
X391600000Y-261720000D03*
X394140000Y-254100000D03*
X394140000Y-261720000D03*
X391600000Y-254100000D03*
X396680000Y-261720000D03*
X389060000Y-254100000D03*
X399220000Y-261720000D03*
X386520000Y-254100000D03*
X401760000Y-261720000D03*
X383980000Y-254100000D03*
X404300000Y-261720000D03*
X381440000Y-254100000D03*
D24*
X381186000Y-219108000D03*
D19*
X404046000Y-211488000D03*
X383726000Y-219108000D03*
X401506000Y-211488000D03*
X386266000Y-219108000D03*
X398966000Y-211488000D03*
X388806000Y-219108000D03*
X396426000Y-211488000D03*
X391346000Y-219108000D03*
X393886000Y-211488000D03*
X393886000Y-219108000D03*
X391346000Y-211488000D03*
X396426000Y-219108000D03*
X388806000Y-211488000D03*
X398966000Y-219108000D03*
X386266000Y-211488000D03*
X401506000Y-219108000D03*
X383726000Y-211488000D03*
X404046000Y-219108000D03*
X381186000Y-211488000D03*
D24*
X481505000Y-165545000D03*
D18*
X481505000Y-163045000D03*
D25*
X350880000Y-143540000D03*
D26*
X350880000Y-138540000D03*
D18*
X507405000Y-194370000D03*
D19*
X507405000Y-181870000D03*
D18*
X507355000Y-200695000D03*
D19*
X507355000Y-213195000D03*
D18*
X330194000Y-135769000D03*
D19*
X342694000Y-135769000D03*
D18*
X396426000Y-205646000D03*
D19*
X408926000Y-205646000D03*
D18*
X371026000Y-226537500D03*
D19*
X383526000Y-226537500D03*
D18*
X336980000Y-233920000D03*
D19*
X336980000Y-246420000D03*
D18*
X343580000Y-233920000D03*
D19*
X343580000Y-246420000D03*
D18*
X350180000Y-233920000D03*
D19*
X350180000Y-246420000D03*
D18*
X356802000Y-233920000D03*
D19*
X356802000Y-246420000D03*
D18*
X363430000Y-233920000D03*
D19*
X363430000Y-246420000D03*
D18*
X370030000Y-233870000D03*
D19*
X370030000Y-246370000D03*
D18*
X376614000Y-233920000D03*
D19*
X376614000Y-246420000D03*
D18*
X426110000Y-245430000D03*
D19*
X413610000Y-245430000D03*
X347955000Y-151495000D03*
D18*
X362955000Y-151495000D03*
X512573000Y-130459000D03*
D19*
X525073000Y-130459000D03*
D18*
X512648000Y-136819000D03*
D19*
X525148000Y-136819000D03*
D18*
X517275000Y-166557000D03*
D19*
X529775000Y-166557000D03*
D18*
X517275000Y-158937000D03*
D19*
X529775000Y-158937000D03*
X337075000Y-254082000D03*
X359935000Y-261702000D03*
X339615000Y-254082000D03*
X357395000Y-261702000D03*
X342155000Y-254082000D03*
X354855000Y-261702000D03*
X344695000Y-254082000D03*
X352315000Y-261702000D03*
X347235000Y-254082000D03*
X349775000Y-261702000D03*
X349775000Y-254082000D03*
X347235000Y-261702000D03*
X352315000Y-254082000D03*
X344695000Y-261702000D03*
X354855000Y-254082000D03*
X342155000Y-261702000D03*
X357395000Y-254082000D03*
X339615000Y-261702000D03*
X359935000Y-254082000D03*
D24*
X337075000Y-261702000D03*
D19*
X381186000Y-279392001D03*
X404046000Y-287012001D03*
X383726000Y-279392001D03*
X401506000Y-287012001D03*
X386266000Y-279392001D03*
X398966000Y-287012001D03*
X388806000Y-279392001D03*
X396426000Y-287012001D03*
X391346000Y-279392001D03*
X393886000Y-287012001D03*
X393886000Y-279392001D03*
X391346000Y-287012001D03*
X396426000Y-279392001D03*
X388806000Y-287012001D03*
X398966000Y-279392001D03*
X386266000Y-287012001D03*
X401506000Y-279392001D03*
X383726000Y-287012001D03*
X404046000Y-279392001D03*
D24*
X381186000Y-287012001D03*
D19*
X381440000Y-233967000D03*
X404300000Y-241587000D03*
X383980000Y-233967000D03*
X401760000Y-241587000D03*
X386520000Y-233967000D03*
X399220000Y-241587000D03*
X389060000Y-233967000D03*
X396680000Y-241587000D03*
X391600000Y-233967000D03*
X394140000Y-241587000D03*
X394140000Y-233967000D03*
X391600000Y-241587000D03*
X396680000Y-233967000D03*
X389060000Y-241587000D03*
X399220000Y-233967000D03*
X386520000Y-241587000D03*
X401760000Y-233967000D03*
X383980000Y-241587000D03*
X404300000Y-233967000D03*
D24*
X381440000Y-241587000D03*
X338091000Y-219108000D03*
D19*
X360951000Y-211488000D03*
X340631000Y-219108000D03*
X358411000Y-211488000D03*
X343171000Y-219108000D03*
X355871000Y-211488000D03*
X345711000Y-219108000D03*
X353331000Y-211488000D03*
X348251000Y-219108000D03*
X350791000Y-211488000D03*
X350791000Y-219108000D03*
X348251000Y-211488000D03*
X353331000Y-219108000D03*
X345711000Y-211488000D03*
X355871000Y-219108000D03*
X343171000Y-211488000D03*
X358411000Y-219108000D03*
X340631000Y-211488000D03*
X360951000Y-219108000D03*
X338091000Y-211488000D03*
D27*
X465030000Y-166420000D03*
D28*
X462490000Y-166420000D03*
X459950000Y-166420000D03*
D27*
X328100000Y-166530000D03*
D28*
X325560000Y-166530000D03*
X323020000Y-166530000D03*
X352180000Y-166500000D03*
X354720000Y-166500000D03*
D27*
X357260000Y-166500000D03*
D18*
X330067000Y-151517000D03*
D19*
X345067000Y-151517000D03*
X359658000Y-135334000D03*
D18*
X359658000Y-147834000D03*
D19*
X336996000Y-279433000D03*
X359856000Y-287053000D03*
X339536000Y-279433000D03*
X357316000Y-287053000D03*
X342076000Y-279433000D03*
X354776000Y-287053000D03*
X344616000Y-279433000D03*
X352236000Y-287053000D03*
X347156000Y-279433000D03*
X349696000Y-287053000D03*
X349696000Y-279433000D03*
X347156000Y-287053000D03*
X352236000Y-279433000D03*
X344616000Y-287053000D03*
X354776000Y-279433000D03*
X342076000Y-287053000D03*
X357316000Y-279433000D03*
X339536000Y-287053000D03*
X359856000Y-279433000D03*
D24*
X336996000Y-287053000D03*
D26*
X394075000Y-143850000D03*
D25*
X394075000Y-148850000D03*
X426271000Y-152814000D03*
D26*
X426271000Y-147814000D03*
X427922000Y-163308000D03*
D25*
X427922000Y-168308000D03*
X393694000Y-164852000D03*
D26*
X393694000Y-157352000D03*
D24*
X373260000Y-169160000D03*
D18*
X373260000Y-166660000D03*
X321750000Y-178508000D03*
D24*
X321750000Y-181008000D03*
D19*
X384858000Y-153422000D03*
D18*
X372358000Y-153422000D03*
D19*
X444255000Y-164020000D03*
D18*
X444255000Y-176520000D03*
D19*
X418197000Y-184818000D03*
D18*
X405697000Y-184818000D03*
D19*
X418197000Y-152433000D03*
D18*
X405697000Y-152433000D03*
X405697000Y-179420500D03*
D19*
X418197000Y-179420500D03*
D18*
X405697000Y-157830500D03*
D19*
X418197000Y-157830500D03*
D18*
X405697000Y-168625500D03*
D19*
X418197000Y-168625500D03*
D18*
X405697000Y-163228000D03*
D19*
X418197000Y-163228000D03*
D18*
X405697000Y-174023000D03*
D19*
X418197000Y-174023000D03*
D18*
X333688000Y-246413000D03*
D19*
X333688000Y-233913000D03*
X340292000Y-233913000D03*
D18*
X340292000Y-246413000D03*
X346896000Y-246413000D03*
D19*
X346896000Y-233913000D03*
X353500000Y-233913000D03*
D18*
X353500000Y-246413000D03*
X360104000Y-246413000D03*
D19*
X360104000Y-233913000D03*
X366708000Y-233913000D03*
D18*
X366708000Y-246413000D03*
D19*
X373312000Y-233913000D03*
D18*
X373312000Y-246413000D03*
D19*
X409280000Y-245513000D03*
D18*
X396780000Y-245513000D03*
D29*
X393440000Y-172091000D03*
X495680000Y-177930000D03*
X331275000Y-182620000D03*
X481850000Y-177920000D03*
X340608000Y-131959000D03*
X504690000Y-178070000D03*
D30*
X412047000Y-143416000D03*
D31*
X412047000Y-133416000D03*
D30*
X373120000Y-143389000D03*
D31*
X373120000Y-133389000D03*
D25*
X506262000Y-165809000D03*
D26*
X506262000Y-158309000D03*
X492530000Y-155645000D03*
D25*
X492530000Y-163145000D03*
D31*
X440876000Y-143383000D03*
D30*
X440876000Y-133383000D03*
D23*
X471440000Y-144705000D03*
D22*
X486440000Y-144715000D03*
M02*
